<mxfile host="app.diagrams.net" modified="2021-01-06T11:54:38.874Z" agent="5.0 (Windows)" etag="0zP37et4zaQvw4WHBrRM" version="14.1.8" type="github">
  <diagram id="LXYUtzcAbD-hreVoi8p6" name="Page-1">
    <mxGraphModel dx="1021" dy="531" grid="1" gridSize="10" guides="1" tooltips="1" connect="1" arrows="1" fold="1" page="1" pageScale="1" pageWidth="827" pageHeight="1169" math="0" shadow="0">
      <root>
        <mxCell id="0" />
        <mxCell id="1" parent="0" />
        <mxCell id="EnF6UYAqxO_FeofS6ZwA-1" value="" style="rounded=0;whiteSpace=wrap;html=1;" vertex="1" parent="1">
          <mxGeometry x="20" y="340" width="600" height="140" as="geometry" />
        </mxCell>
        <mxCell id="EnF6UYAqxO_FeofS6ZwA-2" value="ManagerHome&#xa;PageView" style="shape=umlLifeline;perimeter=lifelinePerimeter;container=1;collapsible=0;recursiveResize=0;rounded=0;shadow=0;strokeWidth=1;" vertex="1" parent="1">
          <mxGeometry x="180" y="80" width="100" height="390" as="geometry" />
        </mxCell>
        <mxCell id="EnF6UYAqxO_FeofS6ZwA-3" value="" style="points=[];perimeter=orthogonalPerimeter;rounded=0;shadow=0;strokeWidth=1;" vertex="1" parent="EnF6UYAqxO_FeofS6ZwA-2">
          <mxGeometry x="45" y="70" width="10" height="300" as="geometry" />
        </mxCell>
        <mxCell id="EnF6UYAqxO_FeofS6ZwA-4" value="ExportSalary&#xa;Controller" style="shape=umlLifeline;perimeter=lifelinePerimeter;container=1;collapsible=0;recursiveResize=0;rounded=0;shadow=0;strokeWidth=1;" vertex="1" parent="1">
          <mxGeometry x="364" y="80" width="100" height="400" as="geometry" />
        </mxCell>
        <mxCell id="EnF6UYAqxO_FeofS6ZwA-5" value="" style="points=[];perimeter=orthogonalPerimeter;rounded=0;shadow=0;strokeWidth=1;" vertex="1" parent="EnF6UYAqxO_FeofS6ZwA-4">
          <mxGeometry x="45" y="80" width="10" height="300" as="geometry" />
        </mxCell>
        <mxCell id="EnF6UYAqxO_FeofS6ZwA-6" value="Manager" style="shape=umlActor;verticalLabelPosition=bottom;verticalAlign=top;html=1;outlineConnect=0;" vertex="1" parent="1">
          <mxGeometry x="50" y="70" width="30" height="60" as="geometry" />
        </mxCell>
        <mxCell id="EnF6UYAqxO_FeofS6ZwA-7" value="Database" style="shape=umlLifeline;perimeter=lifelinePerimeter;container=1;collapsible=0;recursiveResize=0;rounded=0;shadow=0;strokeWidth=1;" vertex="1" parent="1">
          <mxGeometry x="530" y="80" width="100" height="400" as="geometry" />
        </mxCell>
        <mxCell id="EnF6UYAqxO_FeofS6ZwA-8" value="" style="points=[];perimeter=orthogonalPerimeter;rounded=0;shadow=0;strokeWidth=1;" vertex="1" parent="EnF6UYAqxO_FeofS6ZwA-7">
          <mxGeometry x="45" y="80" width="10" height="300" as="geometry" />
        </mxCell>
        <mxCell id="EnF6UYAqxO_FeofS6ZwA-9" value="" style="points=[];perimeter=orthogonalPerimeter;rounded=0;shadow=0;strokeWidth=1;" vertex="1" parent="1">
          <mxGeometry x="60" y="150" width="10" height="330" as="geometry" />
        </mxCell>
        <mxCell id="EnF6UYAqxO_FeofS6ZwA-10" value="click on show salary button" style="verticalAlign=bottom;endArrow=block;shadow=0;strokeWidth=1;" edge="1" parent="1" source="EnF6UYAqxO_FeofS6ZwA-9" target="EnF6UYAqxO_FeofS6ZwA-3">
          <mxGeometry relative="1" as="geometry">
            <mxPoint x="140" y="470" as="sourcePoint" />
            <mxPoint x="265" y="400" as="targetPoint" />
            <Array as="points">
              <mxPoint x="100" y="200" />
            </Array>
          </mxGeometry>
        </mxCell>
        <mxCell id="EnF6UYAqxO_FeofS6ZwA-11" value="new ExportSalaryController()" style="verticalAlign=bottom;endArrow=block;shadow=0;strokeWidth=1;" edge="1" parent="1" source="EnF6UYAqxO_FeofS6ZwA-3" target="EnF6UYAqxO_FeofS6ZwA-5">
          <mxGeometry relative="1" as="geometry">
            <mxPoint x="240" y="210" as="sourcePoint" />
            <mxPoint x="395" y="210" as="targetPoint" />
            <Array as="points">
              <mxPoint x="270" y="210" />
            </Array>
          </mxGeometry>
        </mxCell>
        <mxCell id="EnF6UYAqxO_FeofS6ZwA-14" value="selectScheduleExcelFilePopup()" style="verticalAlign=bottom;endArrow=block;shadow=0;strokeWidth=1;" edge="1" parent="1" source="EnF6UYAqxO_FeofS6ZwA-5" target="EnF6UYAqxO_FeofS6ZwA-3">
          <mxGeometry relative="1" as="geometry">
            <mxPoint x="240" y="270" as="sourcePoint" />
            <mxPoint x="414" y="270" as="targetPoint" />
            <Array as="points">
              <mxPoint x="280" y="260" />
            </Array>
          </mxGeometry>
        </mxCell>
        <mxCell id="EnF6UYAqxO_FeofS6ZwA-15" value="filePath" style="verticalAlign=bottom;endArrow=open;dashed=1;endSize=8;shadow=0;strokeWidth=1;" edge="1" parent="1" source="EnF6UYAqxO_FeofS6ZwA-3" target="EnF6UYAqxO_FeofS6ZwA-5">
          <mxGeometry relative="1" as="geometry">
            <mxPoint x="414" y="320" as="targetPoint" />
            <mxPoint x="575" y="260" as="sourcePoint" />
            <Array as="points">
              <mxPoint x="390" y="310" />
            </Array>
          </mxGeometry>
        </mxCell>
        <mxCell id="EnF6UYAqxO_FeofS6ZwA-16" value="exportEmployeeSalary()" style="verticalAlign=bottom;endArrow=block;shadow=0;strokeWidth=1;" edge="1" parent="1">
          <mxGeometry relative="1" as="geometry">
            <mxPoint x="419" y="330" as="sourcePoint" />
            <mxPoint x="575" y="330" as="targetPoint" />
            <Array as="points">
              <mxPoint x="435" y="330" />
            </Array>
          </mxGeometry>
        </mxCell>
        <mxCell id="EnF6UYAqxO_FeofS6ZwA-17" value="exported" style="verticalAlign=bottom;endArrow=open;dashed=1;endSize=8;shadow=0;strokeWidth=1;" edge="1" parent="1" source="EnF6UYAqxO_FeofS6ZwA-8" target="EnF6UYAqxO_FeofS6ZwA-5">
          <mxGeometry relative="1" as="geometry">
            <mxPoint x="419" y="350" as="targetPoint" />
            <mxPoint x="575" y="350" as="sourcePoint" />
            <Array as="points">
              <mxPoint x="530" y="370" />
            </Array>
          </mxGeometry>
        </mxCell>
        <mxCell id="EnF6UYAqxO_FeofS6ZwA-18" value="exportSucceedPopup()" style="verticalAlign=bottom;endArrow=open;dashed=1;endSize=8;shadow=0;strokeWidth=1;" edge="1" parent="1" source="EnF6UYAqxO_FeofS6ZwA-5" target="EnF6UYAqxO_FeofS6ZwA-3">
          <mxGeometry relative="1" as="geometry">
            <mxPoint x="250" y="350" as="targetPoint" />
            <mxPoint x="406" y="350" as="sourcePoint" />
            <Array as="points">
              <mxPoint x="361" y="390" />
            </Array>
          </mxGeometry>
        </mxCell>
        <mxCell id="EnF6UYAqxO_FeofS6ZwA-19" value="" style="endArrow=none;dashed=1;html=1;" edge="1" parent="1" source="EnF6UYAqxO_FeofS6ZwA-9" target="EnF6UYAqxO_FeofS6ZwA-8">
          <mxGeometry width="50" height="50" relative="1" as="geometry">
            <mxPoint x="380" y="440" as="sourcePoint" />
            <mxPoint x="430" y="390" as="targetPoint" />
            <Array as="points">
              <mxPoint x="380" y="400" />
            </Array>
          </mxGeometry>
        </mxCell>
        <mxCell id="EnF6UYAqxO_FeofS6ZwA-20" value="error" style="verticalAlign=bottom;endArrow=open;dashed=1;endSize=8;shadow=0;strokeWidth=1;" edge="1" parent="1" source="EnF6UYAqxO_FeofS6ZwA-8" target="EnF6UYAqxO_FeofS6ZwA-5">
          <mxGeometry relative="1" as="geometry">
            <mxPoint x="414" y="430" as="targetPoint" />
            <mxPoint x="570" y="430" as="sourcePoint" />
            <Array as="points">
              <mxPoint x="525" y="430" />
            </Array>
          </mxGeometry>
        </mxCell>
        <mxCell id="EnF6UYAqxO_FeofS6ZwA-21" value="exportFailedPopup()" style="verticalAlign=bottom;endArrow=open;dashed=1;endSize=8;shadow=0;strokeWidth=1;" edge="1" parent="1" source="EnF6UYAqxO_FeofS6ZwA-5" target="EnF6UYAqxO_FeofS6ZwA-3">
          <mxGeometry relative="1" as="geometry">
            <mxPoint x="240" y="430" as="targetPoint" />
            <mxPoint x="414" y="430" as="sourcePoint" />
            <Array as="points">
              <mxPoint x="366" y="430" />
            </Array>
          </mxGeometry>
        </mxCell>
        <mxCell id="EnF6UYAqxO_FeofS6ZwA-22" value="Alt" style="rounded=0;whiteSpace=wrap;html=1;" vertex="1" parent="1">
          <mxGeometry x="20" y="340" width="30" height="20" as="geometry" />
        </mxCell>
        <mxCell id="EnF6UYAqxO_FeofS6ZwA-23" value="[export succeed]" style="text;html=1;strokeColor=none;fillColor=none;align=center;verticalAlign=middle;whiteSpace=wrap;rounded=0;" vertex="1" parent="1">
          <mxGeometry x="80" y="350" width="110" height="20" as="geometry" />
        </mxCell>
        <mxCell id="EnF6UYAqxO_FeofS6ZwA-24" value="[export failed]" style="text;html=1;strokeColor=none;fillColor=none;align=center;verticalAlign=middle;whiteSpace=wrap;rounded=0;" vertex="1" parent="1">
          <mxGeometry x="80" y="410" width="110" height="20" as="geometry" />
        </mxCell>
      </root>
    </mxGraphModel>
  </diagram>
</mxfile>
